<svg width="89" height="89" viewBox="0 0 89 89" fill="none" xmlns="http://www.w3.org/2000/svg">
<g id="Cat">
<path id="Vector" d="M33.0667 48.2222C33.0667 49.0397 32.8242 49.8389 32.3701 50.5186C31.9159 51.1983 31.2704 51.7281 30.5151 52.0409C29.7598 52.3538 28.9287 52.4356 28.127 52.2761C27.3252 52.1167 26.5887 51.723 26.0106 51.1449C25.4326 50.5669 25.0389 49.8304 24.8794 49.0286C24.7199 48.2268 24.8018 47.3957 25.1146 46.6405C25.4275 45.8852 25.9573 45.2397 26.637 44.7855C27.3167 44.3313 28.1158 44.0889 28.9333 44.0889C30.0296 44.0889 31.0809 44.5244 31.856 45.2995C32.6312 46.0747 33.0667 47.126 33.0667 48.2222ZM59.2444 44.0889C58.4269 44.0889 57.6278 44.3313 56.9481 44.7855C56.2684 45.2397 55.7386 45.8852 55.4257 46.6405C55.1129 47.3957 55.031 48.2268 55.1905 49.0286C55.35 49.8304 55.7437 50.5669 56.3217 51.1449C56.8998 51.723 57.6363 52.1167 58.4381 52.2761C59.2399 52.4356 60.0709 52.3538 60.8262 52.0409C61.5815 51.7281 62.227 51.1983 62.6812 50.5186C63.1354 49.8389 63.3778 49.0397 63.3778 48.2222C63.3778 47.126 62.9423 46.0747 62.1671 45.2995C61.392 44.5244 60.3407 44.0889 59.2444 44.0889ZM79.9111 16.5333V46.8444C79.9111 65.0759 63.8428 79.9111 44.0889 79.9111C24.335 79.9111 8.26666 65.0759 8.26666 46.8444V16.5333C8.26717 15.4437 8.59066 14.3787 9.19627 13.4729C9.80187 12.567 10.6624 11.8611 11.6691 11.4441C12.6758 11.0272 13.7835 10.9181 14.8522 11.1305C15.921 11.343 16.9027 11.8674 17.6734 12.6377C17.7217 12.6859 17.763 12.7307 17.8043 12.7789L23.7667 19.6333C29.8631 15.8137 36.9119 13.788 44.1061 13.788C51.3003 13.788 58.3491 15.8137 64.4456 19.6333L70.3734 12.7789C70.4148 12.7307 70.4561 12.6859 70.5043 12.6377C71.2751 11.8674 72.2568 11.343 73.3255 11.1305C74.3942 10.9181 75.502 11.0272 76.5087 11.4441C77.5154 11.8611 78.3759 12.567 78.9815 13.4729C79.5871 14.3787 79.9106 15.4437 79.9111 16.5333ZM74.4 16.5333L66.9738 25.0756C66.5195 25.6011 65.8835 25.9357 65.1931 26.0123C64.5027 26.089 63.8088 25.902 63.2503 25.4889C61.5693 24.2458 59.7653 23.1782 57.8667 22.3028V30.3111C57.8667 31.0419 57.5764 31.7428 57.0596 32.2596C56.5428 32.7764 55.8419 33.0667 55.1111 33.0667C54.3803 33.0667 53.6794 32.7764 53.1626 32.2596C52.6459 31.7428 52.3556 31.0419 52.3556 30.3111V20.3394C50.5478 19.8744 48.7043 19.561 46.8444 19.4026V30.3111C46.8444 31.0419 46.5541 31.7428 46.0374 32.2596C45.5206 32.7764 44.8197 33.0667 44.0889 33.0667C43.3581 33.0667 42.6572 32.7764 42.1404 32.2596C41.6236 31.7428 41.3333 31.0419 41.3333 30.3111V19.4026C39.4734 19.561 37.63 19.8744 35.8222 20.3394V30.3111C35.8222 31.0419 35.5319 31.7428 35.0151 32.2596C34.4984 32.7764 33.7975 33.0667 33.0667 33.0667C32.3358 33.0667 31.635 32.7764 31.1182 32.2596C30.6014 31.7428 30.3111 31.0419 30.3111 30.3111V22.3028C28.4124 23.1782 26.6085 24.2458 24.9274 25.4889C24.3702 25.9032 23.6771 26.0919 22.9867 26.0172C22.2964 25.9425 21.6597 25.6099 21.204 25.0859L13.7778 16.5333V46.8444C13.7778 61.194 25.9057 73.0222 41.3333 74.2863V67.2735L36.6282 62.5683C36.3724 62.3123 36.1696 62.0084 36.0312 61.674C35.8929 61.3396 35.8217 60.9812 35.8219 60.6193C35.8221 60.2574 35.8935 59.8991 36.0321 59.5648C36.1708 59.2305 36.3739 58.9267 36.6299 58.671C37.147 58.1544 37.8481 57.8643 38.579 57.8646C38.9409 57.8648 39.2992 57.9362 39.6335 58.0749C39.9678 58.2135 40.2715 58.4167 40.5273 58.6727L44.0889 62.2342L47.6504 58.6727C47.9062 58.4167 48.2099 58.2135 48.5442 58.0749C48.8785 57.9362 49.2369 57.8648 49.5988 57.8646C49.9607 57.8645 50.3191 57.9356 50.6535 58.0739C50.9879 58.2123 51.2918 58.4152 51.5478 58.671C51.8038 58.9267 52.007 59.2305 52.1456 59.5648C52.2843 59.8991 52.3557 60.2574 52.3559 60.6193C52.356 60.9812 52.2849 61.3396 52.1466 61.674C52.0082 62.0084 51.8053 62.3123 51.5496 62.5683L46.8444 67.2735V74.2863C62.2721 73.0153 74.4 61.1974 74.4 46.8444V16.5333Z" fill="black"/>
</g>
</svg>
