<svg width="82" height="88" viewBox="0 0 82 88" fill="none" xmlns="http://www.w3.org/2000/svg">
<g id="Crosshair">
<path id="Vector" d="M74.3125 41.25H71.6411C71.0262 33.4793 67.8704 26.1924 62.7319 20.6779C57.5935 15.1635 50.8033 11.7768 43.5625 11.1169V8.25C43.5625 7.52065 43.2925 6.82118 42.812 6.30546C42.3314 5.78973 41.6796 5.5 41 5.5C40.3204 5.5 39.6686 5.78973 39.188 6.30546C38.7075 6.82118 38.4375 7.52065 38.4375 8.25V11.1169C31.1967 11.7768 24.4065 15.1635 19.2681 20.6779C14.1296 26.1924 10.9738 33.4793 10.3589 41.25H7.6875C7.00788 41.25 6.3561 41.5397 5.87554 42.0555C5.39498 42.5712 5.125 43.2707 5.125 44C5.125 44.7293 5.39498 45.4288 5.87554 45.9445C6.3561 46.4603 7.00788 46.75 7.6875 46.75H10.3589C10.9738 54.5207 14.1296 61.8076 19.2681 67.3221C24.4065 72.8365 31.1967 76.2232 38.4375 76.8831V79.75C38.4375 80.4793 38.7075 81.1788 39.188 81.6945C39.6686 82.2103 40.3204 82.5 41 82.5C41.6796 82.5 42.3314 82.2103 42.812 81.6945C43.2925 81.1788 43.5625 80.4793 43.5625 79.75V76.8831C50.8033 76.2232 57.5935 72.8365 62.7319 67.3221C67.8704 61.8076 71.0262 54.5207 71.6411 46.75H74.3125C74.9921 46.75 75.6439 46.4603 76.1245 45.9445C76.605 45.4288 76.875 44.7293 76.875 44C76.875 43.2707 76.605 42.5712 76.1245 42.0555C75.6439 41.5397 74.9921 41.25 74.3125 41.25ZM43.5625 71.3625V68.75C43.5625 68.0207 43.2925 67.3212 42.812 66.8055C42.3314 66.2897 41.6796 66 41 66C40.3204 66 39.6686 66.2897 39.188 66.8055C38.7075 67.3212 38.4375 68.0207 38.4375 68.75V71.3625C32.5594 70.7188 27.068 67.9189 22.89 63.4352C18.7119 58.9514 16.1029 53.0582 15.5031 46.75H17.9375C18.6171 46.75 19.2689 46.4603 19.7495 45.9445C20.23 45.4288 20.5 44.7293 20.5 44C20.5 43.2707 20.23 42.5712 19.7495 42.0555C19.2689 41.5397 18.6171 41.25 17.9375 41.25H15.5031C16.1029 34.9418 18.7119 29.0486 22.89 24.5648C27.068 20.0811 32.5594 17.2812 38.4375 16.6375V19.25C38.4375 19.9793 38.7075 20.6788 39.188 21.1945C39.6686 21.7103 40.3204 22 41 22C41.6796 22 42.3314 21.7103 42.812 21.1945C43.2925 20.6788 43.5625 19.9793 43.5625 19.25V16.6375C49.4406 17.2812 54.932 20.0811 59.11 24.5648C63.2881 29.0486 65.8971 34.9418 66.4969 41.25H64.0625C63.3829 41.25 62.7311 41.5397 62.2505 42.0555C61.77 42.5712 61.5 43.2707 61.5 44C61.5 44.7293 61.77 45.4288 62.2505 45.9445C62.7311 46.4603 63.3829 46.75 64.0625 46.75H66.4969C65.8971 53.0582 63.2881 58.9514 59.11 63.4352C54.932 67.9189 49.4406 70.7188 43.5625 71.3625ZM41 30.25C38.4659 30.25 35.9888 31.0564 33.8818 32.5673C31.7748 34.0782 30.1325 36.2256 29.1628 38.7381C28.193 41.2506 27.9393 44.0153 28.4337 46.6825C28.9281 49.3497 30.1483 51.7997 31.9402 53.7227C33.7321 55.6457 36.015 56.9553 38.5004 57.4858C40.9858 58.0163 43.562 57.744 45.9031 56.7033C48.2443 55.6626 50.2453 53.9003 51.6532 51.6391C53.0611 49.3779 53.8125 46.7195 53.8125 44C53.8125 40.3533 52.4626 36.8559 50.0598 34.2773C47.657 31.6987 44.3981 30.25 41 30.25ZM41 52.25C39.4796 52.25 37.9933 51.7661 36.7291 50.8596C35.4648 49.9531 34.4795 48.6646 33.8977 47.1571C33.3158 45.6496 33.1636 43.9908 33.4602 42.3905C33.7568 40.7902 34.489 39.3202 35.5641 38.1664C36.6392 37.0126 38.009 36.2268 39.5002 35.9085C40.9915 35.5902 42.5372 35.7536 43.9419 36.378C45.3466 37.0024 46.5472 38.0598 47.3919 39.4165C48.2366 40.7733 48.6875 42.3683 48.6875 44C48.6875 46.188 47.8776 48.2865 46.4359 49.8336C44.9942 51.3808 43.0389 52.25 41 52.25Z" fill="black"/>
</g>
</svg>
