<svg width="94" height="74" viewBox="0 0 94 74" fill="none" xmlns="http://www.w3.org/2000/svg">
<g id="LinuxLogo">
<path id="Vector" d="M84.0859 64.2441C83.4777 64.6268 82.7012 64.8038 81.9273 64.736C81.1534 64.6683 80.4454 64.3614 79.9588 63.8828C79.4557 63.3827 67.5625 51.4127 67.5625 27.75C67.5625 23.4568 65.3961 19.3395 61.5399 16.3037C57.6837 13.268 52.4535 11.5625 47 11.5625C41.5465 11.5625 36.3163 13.268 32.4601 16.3037C28.6039 19.3395 26.4375 23.4568 26.4375 27.75C26.4375 51.4127 14.5516 63.3827 14.0449 63.8828C13.8038 64.1203 13.5057 64.318 13.1675 64.4647C12.8293 64.6115 12.4578 64.7043 12.074 64.738C11.6903 64.7717 11.3018 64.7455 10.9309 64.6611C10.56 64.5766 10.2138 64.4354 9.91223 64.2456C9.61062 64.0558 9.35944 63.8211 9.17305 63.5549C8.98666 63.2886 8.8687 62.9961 8.82591 62.694C8.78312 62.3919 8.81634 62.0861 8.92366 61.7941C9.03098 61.5021 9.21031 61.2296 9.45141 60.9922C9.50649 60.9344 12.2751 58.1305 15.007 52.6845C17.5406 47.6375 20.5625 39.2084 20.5625 27.75C20.5625 22.2302 23.3479 16.9364 28.3059 13.0333C33.2639 9.13024 39.9883 6.9375 47 6.9375C54.0117 6.9375 60.7361 9.13024 65.6941 13.0333C70.6521 16.9364 73.4375 22.2302 73.4375 27.75C73.4375 39.2084 76.4595 47.6375 78.9931 52.6903C81.7396 58.1652 84.5229 60.9691 84.5523 60.998C85.0364 61.4774 85.2592 62.0884 85.1718 62.697C85.0844 63.3055 84.6939 63.862 84.0859 64.2441ZM36.7188 27.75C35.8473 27.75 34.9954 27.9534 34.2708 28.3346C33.5462 28.7157 32.9814 29.2575 32.6479 29.8913C32.3144 30.5251 32.2272 31.2226 32.3972 31.8955C32.5672 32.5683 32.9868 33.1864 33.6031 33.6715C34.2193 34.1566 35.0044 34.487 35.8591 34.6208C36.7139 34.7547 37.5998 34.686 38.405 34.4235C39.2101 34.1609 39.8983 33.7163 40.3824 33.1459C40.8666 32.5755 41.125 31.9048 41.125 31.2188C41.125 30.2988 40.6608 29.4165 39.8344 28.766C39.0081 28.1155 37.8874 27.75 36.7188 27.75ZM61.6875 31.2188C61.6875 30.5327 61.4291 29.862 60.9449 29.2916C60.4608 28.7212 59.7726 28.2766 58.9675 28.014C58.1623 27.7515 57.2764 27.6828 56.4216 27.8167C55.5669 27.9505 54.7818 28.2809 54.1656 28.766C53.5493 29.2511 53.1297 29.8692 52.9597 30.542C52.7897 31.2149 52.8769 31.9124 53.2104 32.5462C53.5439 33.18 54.1087 33.7218 54.8333 34.1029C55.5579 34.4841 56.4098 34.6875 57.2813 34.6875C58.4499 34.6875 59.5706 34.322 60.3969 33.6715C61.2233 33.021 61.6875 32.1387 61.6875 31.2188ZM36.5645 39.5553C35.87 39.2956 35.0737 39.2606 34.3468 39.4579C33.6198 39.6552 33.0201 40.069 32.6764 40.6105C32.3327 41.152 32.2724 41.778 32.5085 42.3541C32.7446 42.9303 33.2583 43.4105 33.9391 43.6918L45.6891 48.3168C46.0963 48.4784 46.5459 48.5626 47.0018 48.5626C47.4578 48.5626 47.9074 48.4784 48.3145 48.3168L60.0645 43.6918C60.7613 43.4173 61.2911 42.9362 61.5373 42.3543C61.7834 41.7723 61.7259 41.1372 61.3772 40.5887C61.0286 40.0402 60.4174 39.6231 59.6782 39.4293C58.939 39.2355 58.1323 39.2809 57.4355 39.5553L47 43.6629L36.5645 39.5553ZM47 53.1875C43.465 53.2097 40.0016 53.9745 36.9677 55.403C33.9338 56.8315 31.4394 58.8718 29.7422 61.313C29.5546 61.5788 29.4354 61.871 29.3912 62.173C29.3471 62.475 29.379 62.7809 29.485 63.0732C29.5911 63.3655 29.7692 63.6385 30.0093 63.8766C30.2493 64.1147 30.5466 64.3133 30.8841 64.4609C31.2217 64.6086 31.5929 64.7025 31.9765 64.7372C32.3601 64.772 32.7487 64.7469 33.12 64.6634C33.4913 64.5799 33.8381 64.4397 34.1406 64.2507C34.443 64.0617 34.6952 63.8277 34.8828 63.562C36.0498 61.829 37.7943 60.379 39.9292 59.3678C42.064 58.3565 44.5085 57.8222 47 57.8222C49.4915 57.8222 51.936 58.3565 54.0708 59.3678C56.2057 60.379 57.9502 61.829 59.1172 63.562C59.3048 63.8277 59.557 64.0617 59.8595 64.2507C60.1619 64.4397 60.5087 64.5799 60.88 64.6634C61.2513 64.7469 61.6399 64.772 62.0235 64.7372C62.4071 64.7025 62.7783 64.6086 63.1159 64.4609C63.4534 64.3133 63.7507 64.1147 63.9908 63.8766C64.2308 63.6385 64.409 63.3655 64.515 63.0732C64.621 62.7809 64.6529 62.475 64.6088 62.173C64.5646 61.871 64.4454 61.5788 64.2578 61.313C62.5606 58.8718 60.0662 56.8315 57.0323 55.403C53.9984 53.9745 50.535 53.2097 47 53.1875Z" fill="black"/>
</g>
</svg>
