<svg width="83" height="71" viewBox="0 0 83 71" fill="none" xmlns="http://www.w3.org/2000/svg">
<g id="Question">
<path id="Vector" d="M45.3571 49.8214C45.3571 50.4783 45.1291 51.1205 44.7019 51.6667C44.2747 52.2129 43.6676 52.6386 42.9572 52.89C42.2468 53.1414 41.4651 53.2072 40.7109 53.079C39.9568 52.9509 39.264 52.6345 38.7203 52.17C38.1766 51.7055 37.8063 51.1137 37.6563 50.4694C37.5063 49.8251 37.5833 49.1573 37.8776 48.5504C38.1718 47.9435 38.6701 47.4247 39.3095 47.0598C39.9488 46.6948 40.7005 46.5 41.4694 46.5C42.5005 46.5 43.4893 46.8499 44.2184 47.4728C44.9475 48.0957 45.3571 48.9405 45.3571 49.8214ZM41.4694 19.9286C34.3224 19.9286 28.5102 24.3987 28.5102 29.8929V31C28.5102 31.5873 28.7833 32.1505 29.2693 32.5657C29.7554 32.981 30.4146 33.2143 31.102 33.2143C31.7894 33.2143 32.4487 32.981 32.9347 32.5657C33.4208 32.1505 33.6939 31.5873 33.6939 31V29.8929C33.6939 26.8482 37.1831 24.3571 41.4694 24.3571C45.7556 24.3571 49.2449 26.8482 49.2449 29.8929C49.2449 32.9375 45.7556 35.4286 41.4694 35.4286C40.782 35.4286 40.1227 35.6619 39.6367 36.0771C39.1506 36.4924 38.8775 37.0556 38.8775 37.6429V39.8571C38.8775 40.4444 39.1506 41.0076 39.6367 41.4229C40.1227 41.8381 40.782 42.0714 41.4694 42.0714C42.1568 42.0714 42.816 41.8381 43.3021 41.4229C43.7882 41.0076 44.0612 40.4444 44.0612 39.8571V39.6579C49.9706 38.7306 54.4286 34.7034 54.4286 29.8929C54.4286 24.3987 48.6164 19.9286 41.4694 19.9286ZM75.1633 35.4286C75.1633 41.1218 73.1872 46.6873 69.4848 51.421C65.7825 56.1548 60.5202 59.8444 54.3635 62.0231C48.2067 64.2018 41.432 64.7719 34.896 63.6612C28.3601 62.5505 22.3564 59.8089 17.6442 55.7831C12.932 51.7574 9.72301 46.6283 8.42293 41.0444C7.12284 35.4605 7.79009 29.6727 10.3403 24.4128C12.8905 19.1528 17.2091 14.6571 22.7501 11.4941C28.291 8.33111 34.8054 6.64285 41.4694 6.64285C50.4027 6.65091 58.9674 9.68627 65.2841 15.0829C71.6009 20.4795 75.1538 27.7966 75.1633 35.4286ZM69.9796 35.4286C69.9796 30.6112 68.3075 25.902 65.1748 21.8965C62.042 17.891 57.5893 14.769 52.3798 12.9255C47.1702 11.082 41.4378 10.5996 35.9073 11.5394C30.3769 12.4793 25.2969 14.7991 21.3096 18.2055C17.3224 21.6119 14.6071 25.9519 13.507 30.6767C12.4069 35.4015 12.9715 40.299 15.1294 44.7496C17.2873 49.2003 20.9415 53.0044 25.63 55.6808C30.3184 58.3572 35.8306 59.7857 41.4694 59.7857C49.0281 59.7784 56.2748 57.2098 61.6197 52.6436C66.9645 48.0773 69.971 41.8862 69.9796 35.4286Z" fill="black"/>
</g>
</svg>
