<svg width="89" height="89" viewBox="0 0 89 89" fill="none" xmlns="http://www.w3.org/2000/svg">
<g id="Sword" clip-path="url(#clip0_5_8)">
<path id="Vector" d="M74.4061 19.2889H52.3616C51.9396 19.2888 51.5233 19.3857 51.1446 19.5721C50.766 19.7584 50.4352 20.0292 50.1778 20.3636L28.1334 49.0248L24.8061 45.7043C24.2942 45.1919 23.6864 44.7854 23.0174 44.5081C22.3483 44.2307 21.6312 44.088 20.9069 44.088C20.1827 44.088 19.4656 44.2307 18.7965 44.5081C18.1275 44.7854 17.5197 45.1919 17.0078 45.7043L12.6368 50.0788C12.1249 50.5905 11.7189 51.1981 11.4419 51.8669C11.1648 52.5356 11.0222 53.2523 11.0222 53.9762C11.0222 54.7 11.1648 55.4167 11.4419 56.0855C11.7189 56.7542 12.1249 57.3618 12.6368 57.8736L19.5257 64.7624L9.88128 74.4069C9.36939 74.9187 8.96333 75.5263 8.6863 76.195C8.40926 76.8637 8.26667 77.5804 8.26667 78.3043C8.26667 79.0281 8.40926 79.7449 8.6863 80.4136C8.96333 81.0823 9.36939 81.6899 9.88128 82.2017L14.2523 86.5692C15.2857 87.602 16.6869 88.1821 18.1479 88.1821C19.609 88.1821 21.0102 87.602 22.0436 86.5692L31.6881 76.9248L38.5769 83.8137C39.0888 84.3261 39.6966 84.7326 40.3656 85.0099C41.0347 85.2872 41.7518 85.43 42.4761 85.43C43.2003 85.43 43.9174 85.2872 44.5865 85.0099C45.2555 84.7326 45.8633 84.3261 46.3752 83.8137L50.7462 79.4392C51.2581 78.9275 51.6641 78.3199 51.9412 77.6511C52.2182 76.9824 52.3608 76.2657 52.3608 75.5418C52.3608 74.818 52.2182 74.1013 51.9412 73.4325C51.6641 72.7638 51.2581 72.1562 50.7462 71.6444L47.4257 68.324L76.0869 46.2796C76.4223 46.0214 76.6936 45.6896 76.88 45.3097C77.0663 44.9298 77.1627 44.512 77.1616 44.0889V22.0444C77.1616 21.3136 76.8713 20.6127 76.3545 20.096C75.8378 19.5792 75.1369 19.2889 74.4061 19.2889ZM18.1548 82.6667L13.7838 78.2991L23.4283 68.6547L27.7958 73.0222L18.1548 82.6667ZM42.4761 79.9111L16.5394 53.9779L20.9138 49.6L46.8505 75.5401L42.4761 79.9111ZM71.6505 42.7318L43.4956 64.3904L39.7274 60.6222L57.0667 43.2829C57.5833 42.7658 57.8734 42.0647 57.873 41.3338C57.8727 40.6029 57.5821 39.9021 57.065 39.3855C56.5479 38.8689 55.8469 38.5789 55.1159 38.5792C54.385 38.5795 53.6842 38.8702 53.1676 39.3872L35.8283 56.7231L32.0635 52.9549L53.7187 24.8H71.6505V42.7318Z" fill="black"/>
</g>
<defs>
<clipPath id="clip0_5_8">
<rect width="88.1778" height="88.1778" fill="white"/>
</clipPath>
</defs>
</svg>
